# xmcd CD database file
#
# Track frame offsets:
#	150
#	19669
#	41478
#	71258
#	95211
#	115518
#	135542
#	158585
#	184348
#
# Disc length: 2780 seconds
#
# Revision: 0
# Processed by: cddbd v1.5.1PL0 Copyright (c) Steve Scherf et al.
# Submitted via: CDex 1.51
#
DISCID=6d0ada09
DTITLE=John Litton Baroi and Pierre Vervloesem  - Zala Zala
DYEAR=2000
DGENRE=Progressive Rock
TTITLE0=Teer Nai Tore
TTITLE1=Tor Hashite
TTITLE2=Kal Gelo
TTITLE3=Pothiker Vhari Bozha
TTITLE4=Talee Talee
TTITLE5=Tor Kotha
TTITLE6=Zala Zala
TTITLE7=Prethibee Prethibee
TTITLE8=Aei Kotha
EXTD=YEAR: 2000
EXTT0=
EXTT1=
EXTT2=
EXTT3=
EXTT4=
EXTT5=
EXTT6=
EXTT7=
EXTT8=
PLAYORDER=
